<svg xmlns="http://www.w3.org/2000/svg" viewBox="0 0 1440 320"><path fill="#009900" fill-opacity="1" d="M0,224L24,224C48,224,96,224,144,197.3C192,171,240,117,288,90.7C336,64,384,64,432,85.3C480,107,528,149,576,149.3C624,149,672,107,720,90.7C768,75,816,85,864,74.7C912,64,960,32,1008,53.3C1056,75,1104,149,1152,176C1200,203,1248,181,1296,181.3C1344,181,1392,203,1416,213.3L1440,224L1440,320L1416,320C1392,320,1344,320,1296,320C1248,320,1200,320,1152,320C1104,320,1056,320,1008,320C960,320,912,320,864,320C816,320,768,320,720,320C672,320,624,320,576,320C528,320,480,320,432,320C384,320,336,320,288,320C240,320,192,320,144,320C96,320,48,320,24,320L0,320Z"></path></svg>